<svg width="28" height="40" viewBox="0 0 28 40" fill="none" xmlns="http://www.w3.org/2000/svg">
<path d="M7.62793 14.6475H20.3721C20.8994 14.6475 21.3477 14.1992 21.3477 13.6631C21.3477 13.127 20.8994 12.6875 20.3721 12.6875H7.62793C7.11816 12.6875 6.65234 13.127 6.65234 13.6631C6.65234 14.1992 7.11816 14.6475 7.62793 14.6475Z" fill="#1C1C1E"/>
<path d="M7.62793 20.6475H20.3721C20.8994 20.6475 21.3477 20.1992 21.3477 19.6631C21.3477 19.127 20.8994 18.6875 20.3721 18.6875H7.62793C7.11816 18.6875 6.65234 19.127 6.65234 19.6631C6.65234 20.1992 7.11816 20.6475 7.62793 20.6475Z" fill="#1C1C1E"/>
<path d="M7.62793 26.6475H20.3721C20.8994 26.6475 21.3477 26.1992 21.3477 25.6631C21.3477 25.127 20.8994 24.6875 20.3721 24.6875H7.62793C7.11816 24.6875 6.65234 25.127 6.65234 25.6631C6.65234 26.1992 7.11816 26.6475 7.62793 26.6475Z" fill="#1C1C1E"/>
</svg>
