<svg width="15" height="17" viewBox="0 0 15 17" fill="none" xmlns="http://www.w3.org/2000/svg">
<path fill-rule="evenodd" clip-rule="evenodd" d="M6.43589 2.00569C4.1772 2.58661 2.50858 4.63602 2.50858 7.07684V10.5674C2.50858 10.8892 2.24727 11.1498 1.92742 11.1498C1.28434 11.1498 0.763184 11.6721 0.763184 12.3135C0.763184 12.9561 1.28508 13.477 1.92957 13.477H13.5603C14.2045 13.477 14.7267 12.9549 14.7267 12.3135C14.7267 11.6707 14.2031 11.1498 13.5624 11.1498C13.2414 11.1498 12.9813 10.8911 12.9813 10.5674V7.07684C12.9813 4.637 11.3129 2.58685 9.05395 2.00569V1.40461C9.05395 0.679699 8.46775 0.0952148 7.74481 0.0952148C7.02328 0.0952148 6.43585 0.681419 6.43585 1.40461L6.43589 2.00569ZM5.70859 14.059H9.7813C9.7813 15.1837 8.86947 16.0952 7.74485 16.0952C6.62024 16.0952 5.70865 15.1836 5.70865 14.059H5.70859Z" fill="#020202"/>
</svg>
