<svg width="23" height="30" viewBox="0 0 23 30" fill="none" xmlns="http://www.w3.org/2000/svg">
<path d="M6.2658 11.6033H16.7342C17.1674 11.6033 17.5356 11.2351 17.5356 10.7947C17.5356 10.3543 17.1674 9.9933 16.7342 9.9933H6.2658C5.84706 9.9933 5.46443 10.3543 5.46443 10.7947C5.46443 11.2351 5.84706 11.6033 6.2658 11.6033Z" fill="#8D8D8D"/>
<path d="M6.2658 16.011H16.7342C17.1674 16.011 17.5356 15.6428 17.5356 15.2024C17.5356 14.762 17.1674 14.401 16.7342 14.401H6.2658C5.84706 14.401 5.46443 14.762 5.46443 15.2024C5.46443 15.6428 5.84706 16.011 6.2658 16.011Z" fill="#8D8D8D"/>
<path d="M6.2658 20.4187H16.7342C17.1674 20.4187 17.5356 20.0505 17.5356 19.6101C17.5356 19.1697 17.1674 18.8087 16.7342 18.8087H6.2658C5.84706 18.8087 5.46443 19.1697 5.46443 19.6101C5.46443 20.0505 5.84706 20.4187 6.2658 20.4187Z" fill="#8D8D8D"/>
</svg>
