<svg width="43" height="43" viewBox="0 0 43 43" fill="none" xmlns="http://www.w3.org/2000/svg">
<path d="M21.5295 0.254883C9.79848 0.254883 0.254517 9.79885 0.254517 21.5299C0.254517 33.2609 9.79848 42.8049 21.5295 42.8049C33.2606 42.8049 42.8045 33.2609 42.8045 21.5299C42.8045 9.79885 33.2606 0.254883 21.5295 0.254883ZM17.2766 30.9185L10.8823 24.538C10.051 23.7085 10.0493 22.3622 10.8786 21.5305C11.7084 20.6984 13.0557 20.6969 13.8874 21.5271L17.2724 24.9062L27.0312 15.1474C27.8619 14.3167 29.2088 14.3167 30.0395 15.1474C30.8702 15.9781 30.8702 17.325 30.0395 18.1557L17.2766 30.9185Z" fill="#CBAD73"/>
</svg>
